<svg width="256" height="256" viewBox="0 0 256 256" fill="none" xmlns="http://www.w3.org/2000/svg">
<g clip-path="url(#clip0)">
<rect width="256" height="256" fill="#F79892"/>
<path d="M97.2261 298.822V189.258L127.031 198.146C127.031 198.146 123.276 270.703 130.249 293.919C117.53 297.06 97.2261 298.822 97.2261 298.822Z" fill="#4D2B09"/>
<path d="M130.172 293.995L145.342 171.406L132.854 182.362L99.9842 165.353L61.4452 125.358L79.2973 84.7504L93.012 77.1652L136.991 92.259L130.785 103.292C123.966 105.591 116.84 106.433 109.638 105.744L97.0727 104.671V115.015L130.785 124.669L159.67 152.175L141.894 117.083H182.502L192.846 97.1626L196.14 123.136L176.909 179.527L166.259 170.257L175.377 285.567L130.172 293.995Z" fill="#4D2B09"/>
<path d="M82.2854 52.8772L85.6566 72.1084L107.723 73.7174L103.815 42.9934L82.2854 52.8772Z" fill="#4D2B09"/>
<path d="M114.082 41.4611L119.445 76.0159L137.604 77.1652L139.979 41.4611H114.082Z" fill="#4D2B09"/>
<path d="M148.254 40.7715L146.492 78.3911L169.247 79.5404L176.296 45.6751L148.254 40.7715Z" fill="#4D2B09"/>
<path d="M182.272 49.6592L178.825 77.1652L193.229 81.5325L196.064 54.7161L182.272 49.6592Z" fill="#4D2B09"/>
<path d="M146.492 85.6699L144.193 103.828H156.605L164.344 88.1983L146.492 85.6699Z" fill="#4D2B09"/>
<path d="M177.829 84.7504L167.868 103.828H181.583L190.164 89.1177L177.829 84.7504Z" fill="#4D2B09"/>
<path d="M218.666 131.641L193.459 190.024L203.37 280L194.608 281.43L184.724 188.722L209.932 130.262L202.959 48.3567L183.805 41.1546L177.062 34.1823L151.778 30.7345H104.505L70.333 47.8204L72.0952 78.9274L65.1995 86.0529L47.8072 130.721L83.971 181.519L78.9908 302.117L70.3704 304L75.1599 184.048L38 131.871L57.6909 81.226L63.2075 75.5562L61.292 42.5337L102.359 22L152.544 22.1532L181.046 25.9842L188.555 33.7226L211.004 42.1506L218.666 131.641Z" fill="#4D2B09"/>
</g>
<defs>
<clipPath id="clip0">
<rect width="256" height="256" fill="white"/>
</clipPath>
</defs>
</svg>
